# xmcd
#
# Track frame offsets:
# 150
# 18086
# 34402
# 47612
# 59233
# 73331
# 87574
# 107925
# 124070
# 138663
# 148261
# 162476
# 173153
# 188409
# 208563
# 219291
# 235961
# 254410
# 267514
# 280573
# 292839
# 305675
# 320265
# 336686
#
# Disc length: 4709 seconds
#
# Revision: 0
# Processed by: cddbd v1.5.2PL0 Copyright (c) Steve Scherf et al.
# Submitted via: Audion 3.0.2 (http://www.panic.com/audion/)
#
DISCID=81126318
DTITLE=THE COmmitments - THE COmmitments
DYEAR=1900
DGENRE=
TTITLE0=THE COmmitments
TTITLE1=THE COmmitments
TTITLE2=THE COmmitments
TTITLE3=THE COmmitments
TTITLE4=THE COmmitments
TTITLE5=THE COmmitments
TTITLE6=THE COmmitments
TTITLE7=THE COmmitments
TTITLE8=THE COmmitments
TTITLE9=THE COmmitments
TTITLE10=THE COmmitments
TTITLE11=THE COmmitments
TTITLE12=THE COmmitments
TTITLE13=THE COmmitments
TTITLE14=THE COmmitments
TTITLE15=THE COmmitments
TTITLE16=THE COmmitments
TTITLE17=THE COmmitments
TTITLE18=THE COmmitments
TTITLE19=THE COmmitments
TTITLE20=THE COmmitments
TTITLE21=THE COmmitments
TTITLE22=THE COmmitments
TTITLE23=THE COmmitments
EXTD=
EXTT0=
EXTT1=
EXTT2=
EXTT3=
EXTT4=
EXTT5=
EXTT6=
EXTT7=
EXTT8=
EXTT9=
EXTT10=
EXTT11=
EXTT12=
EXTT13=
EXTT14=
EXTT15=
EXTT16=
EXTT17=
EXTT18=
EXTT19=
EXTT20=
EXTT21=
EXTT22=
EXTT23=
PLAYORDER=
